 <svg
      width="304"
      height="48"
      viewBox="0 0 304 48"
      fill="none"
      xmlns="http://www.w3.org/2000/svg"
    >
      <path d="M158.551 21.9062C159.098 21.4961 159.59 21.0039 160 20.4023C159.453 20.6484 158.906 20.8125 158.359 20.8672C158.961 20.4844 159.398 19.9648 159.617 19.2812C159.043 19.6094 158.441 19.8555 157.785 19.9648C157.512 19.6914 157.184 19.4727 156.828 19.3086C156.473 19.1445 156.09 19.0625 155.68 19.0625C155.16 19.0625 154.695 19.1992 154.258 19.4453C153.82 19.7188 153.465 20.0742 153.219 20.5117C152.945 20.9492 152.836 21.4414 152.836 21.9336C152.836 22.1523 152.836 22.3711 152.891 22.5898C151.715 22.5352 150.621 22.2617 149.582 21.7148C148.543 21.1953 147.695 20.4844 146.984 19.582C146.711 20.0469 146.574 20.5391 146.574 21.0312C146.574 21.5234 146.684 21.9883 146.93 22.3984C147.148 22.8359 147.477 23.1641 147.859 23.4375C147.395 23.4375 146.957 23.3008 146.574 23.0547V23.1094C146.574 23.793 146.793 24.3945 147.23 24.9141C147.668 25.4609 148.215 25.7891 148.871 25.9258C148.598 25.9805 148.352 26.0078 148.105 26.0078C147.941 26.0078 147.75 26.0078 147.586 25.9805C147.75 26.5547 148.078 27.0195 148.57 27.4023C149.062 27.7852 149.609 27.9492 150.266 27.9492C149.199 28.7695 147.996 29.1797 146.684 29.1797C146.41 29.1797 146.191 29.1797 146 29.1523C147.312 30.0273 148.789 30.4375 150.402 30.4375C152.07 30.4375 153.547 30.0273 154.859 29.1523C156.035 28.3867 156.965 27.375 157.621 26.0625C158.25 24.8594 158.578 23.5742 158.578 22.2617C158.578 22.0977 158.551 21.9883 158.551 21.9062Z" fill="white"/>
    </svg>