<svg
      width="304"
      height="48"
      viewBox="0 0 304 48"
      fill="none"
      xmlns="http://www.w3.org/2000/svg"
    >
      <path d="M214.758 28.6055C214.758 28.6055 214.73 28.5781 214.703 28.5508C214.676 28.5508 214.648 28.5234 214.594 28.5234C214.484 28.5234 214.457 28.5781 214.457 28.6328C214.457 28.7148 214.484 28.7422 214.594 28.7422C214.703 28.7422 214.758 28.6875 214.758 28.6055ZM213.91 28.4961C213.91 28.4414 213.965 28.4141 214.074 28.4414C214.156 28.4688 214.184 28.4961 214.184 28.5508C214.184 28.6055 214.156 28.6328 214.129 28.6328C214.074 28.6602 214.047 28.6602 214.02 28.6328C213.965 28.6328 213.938 28.6055 213.91 28.5781C213.883 28.5508 213.883 28.5234 213.91 28.4961ZM215.113 28.4414C215.195 28.4414 215.25 28.4688 215.25 28.5234C215.25 28.5781 215.223 28.6328 215.141 28.6602C215.086 28.6602 215.059 28.6602 215.031 28.6602C215.004 28.6602 214.977 28.6055 214.977 28.5508C214.977 28.4961 215.004 28.4688 215.113 28.4414ZM216.918 17.9688C218.148 17.9688 219.297 18.2695 220.363 18.8438C221.402 19.4453 222.25 20.2383 222.852 21.2227C223.453 22.2617 223.781 23.4102 223.781 24.6406C223.781 26.1719 223.344 27.5117 222.496 28.7148C221.648 29.918 220.555 30.7383 219.188 31.1758C219.023 31.2305 218.914 31.2031 218.832 31.1211C218.75 31.0664 218.723 30.957 218.723 30.8477V28.5508C218.723 27.9766 218.559 27.5664 218.258 27.293C218.914 27.2383 219.434 27.1289 219.762 27.0195C220.254 26.8555 220.664 26.582 220.938 26.1992C221.238 25.7344 221.402 25.0781 221.402 24.2578C221.402 23.9297 221.32 23.6289 221.211 23.3555C221.102 23.1914 220.938 22.9453 220.691 22.6719C220.746 22.5078 220.801 22.2891 220.828 22.0156C220.828 21.6328 220.773 21.2227 220.637 20.8125C220.445 20.7578 220.199 20.8125 219.871 20.9219C219.652 21.0312 219.379 21.1406 219.105 21.3047L218.75 21.5508C218.176 21.3867 217.602 21.3047 217 21.3047C216.398 21.3047 215.852 21.3867 215.305 21.5508L214.949 21.3047C214.648 21.1406 214.375 21.0312 214.156 20.9219C213.828 20.8125 213.582 20.7578 213.418 20.8125C213.254 21.2227 213.172 21.6328 213.227 22.0156C213.227 22.2891 213.254 22.4805 213.336 22.6445C213.117 22.918 212.953 23.1914 212.844 23.4102C212.734 23.6289 212.707 23.9297 212.707 24.2578C212.707 25.0781 212.844 25.7344 213.145 26.1719C213.391 26.5547 213.773 26.8555 214.293 27.0195C214.621 27.1289 215.113 27.2383 215.77 27.293C215.523 27.5117 215.387 27.8398 215.332 28.2227C215.004 28.3867 214.703 28.4414 214.43 28.3867C213.938 28.3594 213.582 28.1133 213.336 27.6484C213.227 27.457 213.062 27.293 212.898 27.1562C212.762 27.1016 212.625 27.0195 212.488 26.9648L212.297 26.9375C212.078 26.9375 211.969 26.9922 211.969 27.0469C211.969 27.1016 211.996 27.1836 212.105 27.2383L212.242 27.3477C212.352 27.4297 212.488 27.5391 212.625 27.7031C212.734 27.8398 212.816 27.9766 212.898 28.1406L213.008 28.3594C213.09 28.6328 213.254 28.8516 213.527 28.9883C213.746 29.125 213.992 29.207 214.32 29.2344C214.539 29.2617 214.758 29.2617 215.004 29.207L215.305 29.1797L215.332 30.8477C215.332 30.957 215.277 31.0664 215.195 31.1211C215.113 31.2031 215.004 31.2305 214.867 31.1758C213.473 30.7383 212.352 29.918 211.504 28.7148C210.629 27.5117 210.219 26.1719 210.219 24.6406C210.219 23.4102 210.492 22.2891 211.094 21.25C211.668 20.2383 212.461 19.4453 213.5 18.8438C214.512 18.2695 215.66 17.9688 216.918 17.9688ZM212.871 27.4023C212.898 27.375 212.953 27.375 213.008 27.4297C213.062 27.4844 213.062 27.5391 213.035 27.5664C212.98 27.6211 212.953 27.5938 212.898 27.5391C212.844 27.4844 212.816 27.457 212.871 27.4023ZM212.57 27.1836C212.598 27.1562 212.652 27.1562 212.707 27.1836C212.762 27.2109 212.762 27.2383 212.762 27.293C212.734 27.3477 212.68 27.3477 212.625 27.293C212.57 27.2656 212.543 27.2383 212.57 27.1836ZM213.473 28.1406C213.473 28.1406 213.5 28.1406 213.555 28.1406C213.582 28.1406 213.609 28.168 213.637 28.1953C213.664 28.2227 213.691 28.25 213.691 28.2773C213.691 28.332 213.691 28.3594 213.691 28.3594C213.637 28.4141 213.555 28.4141 213.5 28.332C213.445 28.3047 213.445 28.2773 213.445 28.2227C213.445 28.1953 213.445 28.168 213.473 28.1406ZM213.145 27.7578C213.172 27.7578 213.199 27.7578 213.227 27.7578C213.254 27.7578 213.281 27.7852 213.309 27.8125C213.363 27.8945 213.363 27.9492 213.309 27.9766C213.281 28.0039 213.254 28.0039 213.227 27.9766C213.199 27.9766 213.172 27.9492 213.145 27.9219C213.09 27.8398 213.09 27.7852 213.145 27.7578Z" fill="white"/>
    </svg>