<svg
      width="304"
      height="48"
      viewBox="0 0 304 48"
      fill="none"
      xmlns="http://www.w3.org/2000/svg"
    >
      <path d="M280.5 21.6055C281.047 21.6055 281.566 21.7695 282.059 22.043C282.551 22.3164 282.934 22.6992 283.207 23.1914C283.48 23.6836 283.645 24.2031 283.645 24.75C283.645 25.3242 283.48 25.8438 283.207 26.3359C282.934 26.8281 282.551 27.2109 282.059 27.4844C281.566 27.7578 281.047 27.8945 280.5 27.8945C279.926 27.8945 279.406 27.7578 278.914 27.4844C278.422 27.2109 278.039 26.8281 277.766 26.3359C277.492 25.8438 277.355 25.3242 277.355 24.75C277.355 24.2031 277.492 23.6836 277.766 23.1914C278.039 22.6992 278.422 22.3164 278.914 22.043C279.406 21.7695 279.926 21.6055 280.5 21.6055ZM280.5 26.8008C281.047 26.8008 281.539 26.6094 281.949 26.1992C282.332 25.8164 282.551 25.3242 282.551 24.75C282.551 24.2031 282.332 23.7109 281.949 23.3008C281.539 22.918 281.047 22.6992 280.5 22.6992C279.926 22.6992 279.434 22.918 279.051 23.3008C278.641 23.7109 278.449 24.2031 278.449 24.75C278.449 25.3242 278.641 25.8164 279.051 26.1992C279.434 26.6094 279.926 26.8008 280.5 26.8008ZM284.52 21.4688C284.52 21.2773 284.438 21.1133 284.301 20.9492C284.137 20.8125 283.973 20.7305 283.781 20.7305C283.562 20.7305 283.398 20.8125 283.262 20.9492C283.098 21.1133 283.043 21.2773 283.043 21.4688C283.043 21.6875 283.098 21.8516 283.262 21.9883C283.398 22.1523 283.562 22.207 283.781 22.207C283.973 22.207 284.137 22.1523 284.273 21.9883C284.41 21.8516 284.492 21.6875 284.52 21.4688ZM286.598 22.207C286.598 22.7266 286.625 23.5742 286.625 24.75C286.625 25.9531 286.598 26.8008 286.57 27.3203C286.543 27.8398 286.461 28.2773 286.352 28.6602C286.188 29.125 285.914 29.5352 285.586 29.8633C285.258 30.1914 284.848 30.4375 284.41 30.6016C284.027 30.7383 283.562 30.8203 283.043 30.8477C282.523 30.875 281.676 30.875 280.5 30.875C279.297 30.875 278.449 30.875 277.93 30.8477C277.41 30.8203 276.973 30.7383 276.59 30.5742C276.125 30.4375 275.715 30.1914 275.387 29.8633C275.059 29.5352 274.812 29.125 274.648 28.6602C274.512 28.2773 274.43 27.8398 274.402 27.3203C274.375 26.8008 274.375 25.9531 274.375 24.75C274.375 23.5742 274.375 22.7266 274.402 22.207C274.43 21.6875 274.512 21.2227 274.648 20.8398C274.812 20.4023 275.059 19.9922 275.387 19.6641C275.715 19.3359 276.125 19.0625 276.59 18.8984C276.973 18.7891 277.41 18.707 277.93 18.6797C278.449 18.6523 279.297 18.625 280.5 18.625C281.676 18.625 282.523 18.6523 283.043 18.6797C283.562 18.707 284.027 18.7891 284.41 18.8984C284.848 19.0625 285.258 19.3359 285.586 19.6641C285.914 19.9922 286.188 20.4023 286.352 20.8398C286.461 21.2227 286.543 21.6875 286.598 22.207ZM285.285 28.3594C285.395 28.0586 285.449 27.5664 285.504 26.8828C285.504 26.5 285.531 25.9258 285.531 25.1875V24.3125C285.531 23.5742 285.504 23 285.504 22.6172C285.449 21.9336 285.395 21.4414 285.285 21.1406C285.066 20.5938 284.656 20.1836 284.109 19.9648C283.809 19.8555 283.316 19.8008 282.633 19.7461C282.223 19.7461 281.648 19.7188 280.938 19.7188H280.062C279.324 19.7188 278.75 19.7461 278.367 19.7461C277.684 19.8008 277.191 19.8555 276.891 19.9648C276.316 20.1836 275.934 20.5938 275.715 21.1406C275.605 21.4414 275.523 21.9336 275.496 22.6172C275.469 23.0273 275.469 23.6016 275.469 24.3125V25.1875C275.469 25.9258 275.469 26.5 275.496 26.8828C275.523 27.5664 275.605 28.0586 275.715 28.3594C275.934 28.9336 276.344 29.3164 276.891 29.5352C277.191 29.6445 277.684 29.7266 278.367 29.7539C278.75 29.7812 279.324 29.7812 280.062 29.7812H280.938C281.676 29.7812 282.25 29.7812 282.633 29.7539C283.316 29.7266 283.809 29.6445 284.109 29.5352C284.656 29.3164 285.066 28.9062 285.285 28.3594Z" fill="white"/>
    </svg>