 <svg
      width="304"
      height="48"
      viewBox="0 0 304 48"
      fill="none"
      xmlns="http://www.w3.org/2000/svg"
    >
      <path
        d="M24.5 21.6055C25.0469 21.6055 25.5664 21.7695 26.0586 22.043C26.5508 22.3164 26.9336 22.6992 27.207 23.1914C27.4805 23.6836 27.6445 24.2031 27.6445 24.75C27.6445 25.3242 27.4805 25.8438 27.207 26.3359C26.9336 26.8281 26.5508 27.2109 26.0586 27.4844C25.5664 27.7578 25.0469 27.8945 24.5 27.8945C23.9258 27.8945 23.4062 27.7578 22.9141 27.4844C22.4219 27.2109 22.0391 26.8281 21.7656 26.3359C21.4922 25.8438 21.3555 25.3242 21.3555 24.75C21.3555 24.2031 21.4922 23.6836 21.7656 23.1914C22.0391 22.6992 22.4219 22.3164 22.9141 22.043C23.4062 21.7695 23.9258 21.6055 24.5 21.6055ZM24.5 26.8008C25.0469 26.8008 25.5391 26.6094 25.9492 26.1992C26.332 25.8164 26.5508 25.3242 26.5508 24.75C26.5508 24.2031 26.332 23.7109 25.9492 23.3008C25.5391 22.918 25.0469 22.6992 24.5 22.6992C23.9258 22.6992 23.4336 22.918 23.0508 23.3008C22.6406 23.7109 22.4492 24.2031 22.4492 24.75C22.4492 25.3242 22.6406 25.8164 23.0508 26.1992C23.4336 26.6094 23.9258 26.8008 24.5 26.8008ZM28.5195 21.4688C28.5195 21.2773 28.4375 21.1133 28.3008 20.9492C28.1367 20.8125 27.9727 20.7305 27.7812 20.7305C27.5625 20.7305 27.3984 20.8125 27.2617 20.9492C27.0977 21.1133 27.043 21.2773 27.043 21.4688C27.043 21.6875 27.0977 21.8516 27.2617 21.9883C27.3984 22.1523 27.5625 22.207 27.7812 22.207C27.9727 22.207 28.1367 22.1523 28.2734 21.9883C28.4102 21.8516 28.4922 21.6875 28.5195 21.4688ZM30.5977 22.207C30.5977 22.7266 30.625 23.5742 30.625 24.75C30.625 25.9531 30.5977 26.8008 30.5703 27.3203C30.543 27.8398 30.4609 28.2773 30.3516 28.6602C30.1875 29.125 29.9141 29.5352 29.5859 29.8633C29.2578 30.1914 28.8477 30.4375 28.4102 30.6016C28.0273 30.7383 27.5625 30.8203 27.043 30.8477C26.5234 30.875 25.6758 30.875 24.5 30.875C23.2969 30.875 22.4492 30.875 21.9297 30.8477C21.4102 30.8203 20.9727 30.7383 20.5898 30.5742C20.125 30.4375 19.7148 30.1914 19.3867 29.8633C19.0586 29.5352 18.8125 29.125 18.6484 28.6602C18.5117 28.2773 18.4297 27.8398 18.4023 27.3203C18.375 26.8008 18.375 25.9531 18.375 24.75C18.375 23.5742 18.375 22.7266 18.4023 22.207C18.4297 21.6875 18.5117 21.2227 18.6484 20.8398C18.8125 20.4023 19.0586 19.9922 19.3867 19.6641C19.7148 19.3359 20.125 19.0625 20.5898 18.8984C20.9727 18.7891 21.4102 18.707 21.9297 18.6797C22.4492 18.6523 23.2969 18.625 24.5 18.625C25.6758 18.625 26.5234 18.6523 27.043 18.6797C27.5625 18.707 28.0273 18.7891 28.4102 18.8984C28.8477 19.0625 29.2578 19.3359 29.5859 19.6641C29.9141 19.9922 30.1875 20.4023 30.3516 20.8398C30.4609 21.2227 30.543 21.6875 30.5977 22.207ZM29.2852 28.3594C29.3945 28.0586 29.4492 27.5664 29.5039 26.8828C29.5039 26.5 29.5312 25.9258 29.5312 25.1875V24.3125C29.5312 23.5742 29.5039 23 29.5039 22.6172C29.4492 21.9336 29.3945 21.4414 29.2852 21.1406C29.0664 20.5938 28.6562 20.1836 28.1094 19.9648C27.8086 19.8555 27.3164 19.8008 26.6328 19.7461C26.2227 19.7461 25.6484 19.7188 24.9375 19.7188H24.0625C23.3242 19.7188 22.75 19.7461 22.3672 19.7461C21.6836 19.8008 21.1914 19.8555 20.8906 19.9648C20.3164 20.1836 19.9336 20.5938 19.7148 21.1406C19.6055 21.4414 19.5234 21.9336 19.4961 22.6172C19.4688 23.0273 19.4688 23.6016 19.4688 24.3125V25.1875C19.4688 25.9258 19.4688 26.5 19.4961 26.8828C19.5234 27.5664 19.6055 28.0586 19.7148 28.3594C19.9336 28.9336 20.3438 29.3164 20.8906 29.5352C21.1914 29.6445 21.6836 29.7266 22.3672 29.7539C22.75 29.7812 23.3242 29.7812 24.0625 29.7812H24.9375C25.6758 29.7812 26.25 29.7812 26.6328 29.7539C27.3164 29.7266 27.8086 29.6445 28.1094 29.5352C28.6562 29.3164 29.0664 28.9062 29.2852 28.3594Z"
        fill="white"
      />
    </svg>