 <svg
      width="304"
      height="48"
      viewBox="0 0 304 48"
      fill="none"
      xmlns="http://www.w3.org/2000/svg"
    >
    <path d="M94.625 19.3086C94.625 19.1172 94.543 18.9531 94.4062 18.8164C94.2695 18.707 94.1055 18.625 93.9414 18.625H83.0586C82.8398 18.625 82.6758 18.707 82.5664 18.8164C82.4297 18.9531 82.375 19.1172 82.375 19.3086V30.1914C82.375 30.3828 82.4297 30.5469 82.5664 30.6836C82.6758 30.8203 82.8398 30.875 83.0586 30.875H88.9102V26.1172H87.3242V24.2852H88.9102V22.918C88.9102 22.1523 89.1289 21.5508 89.5664 21.1133C90.0039 20.7031 90.5781 20.4844 91.2891 20.4844C91.8359 20.4844 92.3281 20.5117 92.7109 20.5391V22.207H91.7266C91.3711 22.207 91.125 22.2891 90.9883 22.4531C90.8789 22.5898 90.8242 22.8086 90.8242 23.1094V24.2852H92.6562L92.4102 26.1172H90.8242V30.875H93.9414C94.1328 30.875 94.2969 30.8203 94.4336 30.6836C94.543 30.5469 94.625 30.3828 94.625 30.1914V19.3086Z" fill="white"/>
      
    </svg>